<mxfile host="app.diagrams.net" modified="2024-06-03T04:52:33.261Z" agent="Mozilla/5.0 (Macintosh; Intel Mac OS X 10_15_7) AppleWebKit/537.36 (KHTML, like Gecko) Chrome/125.0.0.0 Safari/537.36" etag="kOXElU8f-Do3Omcg--r7" version="24.4.10" type="device">
  <diagram name="Page-1" id="pgF0U18k3PFheCKqF2H7">
    <mxGraphModel dx="1242" dy="715" grid="0" gridSize="10" guides="1" tooltips="1" connect="1" arrows="1" fold="1" page="1" pageScale="1" pageWidth="1100" pageHeight="850" math="0" shadow="0">
      <root>
        <mxCell id="0" />
        <mxCell id="1" parent="0" />
        <mxCell id="u2JmgXyl9PjmI0iKHWWs-1" value="FUNCTIONAL REQUIREMENTS" style="text;html=1;align=center;verticalAlign=middle;resizable=0;points=[];autosize=1;strokeColor=none;fillColor=none;" vertex="1" parent="1">
          <mxGeometry x="13" y="26" width="194" height="26" as="geometry" />
        </mxCell>
      </root>
    </mxGraphModel>
  </diagram>
</mxfile>
